<svg width="48" height="48" viewBox="0 0 48 48" fill="none" xmlns="http://www.w3.org/2000/svg">
<path d="M47.8265 34.5652C47.4955 33.6582 46.8582 33.1679 46.135 32.7757C46.0002 32.7021 45.8776 32.6286 45.7673 32.5796C45.5466 32.4693 45.326 32.3589 45.1054 32.2486C42.8501 31.0474 41.085 29.5521 39.8716 27.7625C39.5284 27.26 39.2219 26.7206 38.9768 26.1691C38.8665 25.8749 38.8787 25.7033 38.9523 25.544C39.0258 25.4214 39.1239 25.3233 39.2464 25.2375C39.6387 24.9801 40.0309 24.7227 40.3006 24.5511C40.7786 24.2324 41.1708 23.9873 41.416 23.8157C42.3353 23.1661 42.9849 22.4797 43.3894 21.7075C43.9655 20.6288 44.039 19.3663 43.5977 18.2264C42.9849 16.6085 41.465 15.6156 39.6142 15.6156C39.2219 15.6156 38.842 15.6524 38.4497 15.7382C38.3517 15.7627 38.2414 15.7872 38.1433 15.8118C38.1556 14.7086 38.131 13.5442 38.033 12.392C37.6898 8.35939 36.2679 6.25116 34.7971 4.57193C33.8533 3.51781 32.7501 2.62304 31.5122 1.92438C29.2814 0.649631 26.7441 0 23.9863 0C21.2284 0 18.7034 0.649631 16.4726 1.92438C15.2346 2.62304 14.1315 3.51781 13.1877 4.57193C11.7168 6.25116 10.3072 8.37165 9.95179 12.392C9.85373 13.5442 9.82922 14.7086 9.84148 15.8118C9.74342 15.7872 9.64536 15.7627 9.53505 15.7382C9.15507 15.6524 8.76285 15.6156 8.38287 15.6156C6.53204 15.6156 5.01215 16.6207 4.39929 18.2264C3.95803 19.3663 4.03157 20.6288 4.60766 21.7075C5.01215 22.4797 5.66178 23.1661 6.58107 23.8157C6.82621 23.9873 7.20618 24.2324 7.69647 24.5511C7.95387 24.7227 8.33384 24.9679 8.71382 25.213C8.84864 25.2988 8.95896 25.4091 9.04476 25.544C9.1183 25.7033 9.13056 25.8749 9.00799 26.1936C8.76284 26.7329 8.46867 27.26 8.12547 27.7502C6.93653 29.4908 5.22052 30.9739 3.03874 32.1628C1.88657 32.7757 0.685365 33.1802 0.170564 34.5652C-0.209408 35.6071 0.035735 36.7838 1.00405 37.7889C1.35951 38.1566 1.77625 38.4753 2.22977 38.7204C3.17357 39.2352 4.17866 39.6397 5.23278 39.9216C5.45341 39.9829 5.64952 40.0687 5.83338 40.1913C6.18884 40.4977 6.13981 40.9635 6.60558 41.6499C6.83847 42.0053 7.1449 42.3118 7.4881 42.5569C8.48093 43.2433 9.59633 43.2801 10.773 43.3291C11.8394 43.3659 13.0406 43.4149 14.4257 43.8684C15.0017 44.0523 15.5901 44.42 16.2765 44.849C17.9312 45.8664 20.1865 47.2514 23.974 47.2514C27.7615 47.2514 30.029 45.8541 31.696 44.8368C32.3824 44.42 32.9708 44.0523 33.5223 43.8684C34.8951 43.4149 36.1086 43.3659 37.175 43.3291C38.3517 43.2801 39.4671 43.2433 40.4599 42.5569C40.8767 42.2627 41.2198 41.895 41.465 41.4538C41.8082 40.8777 41.7959 40.4732 42.1146 40.1913C42.2862 40.0687 42.4823 39.9829 42.6785 39.9339C43.7326 39.652 44.7622 39.2475 45.7182 38.7204C46.1963 38.463 46.6375 38.1198 47.0052 37.7153L47.0175 37.7031C47.9736 36.7225 48.2064 35.5703 47.8265 34.5652ZM44.468 36.367C42.4211 37.4947 41.0483 37.3721 39.9941 38.0585C39.0871 38.6346 39.6264 39.8849 38.9768 40.3384C38.1678 40.8899 35.7899 40.3016 32.7256 41.3189C30.1884 42.1524 28.5827 44.5671 24.023 44.5671C19.4634 44.5671 17.8944 42.1647 15.3204 41.3189C12.2561 40.3016 9.87825 40.9022 9.06927 40.3384C8.41964 39.8849 8.9467 38.6346 8.05193 38.0585C6.98556 37.3721 5.62501 37.4947 3.57806 36.367C2.26654 35.6439 3.01423 35.2026 3.44323 34.9942C10.8711 31.4029 12.06 25.8504 12.1091 25.4336C12.1703 24.9311 12.2439 24.5389 11.6923 24.0363C11.1653 23.546 8.81187 22.0874 8.14999 21.6339C7.07135 20.874 6.59333 20.1263 6.94878 19.1947C7.19393 18.5574 7.79453 18.3122 8.41964 18.3122C8.61576 18.3122 8.81187 18.3367 9.00799 18.3735C10.1969 18.6309 11.3491 19.2193 12.011 19.3909C12.0968 19.4154 12.1703 19.4276 12.2561 19.4276C12.6116 19.4276 12.7342 19.2438 12.7097 18.8393C12.6361 17.54 12.4523 15.015 12.6606 12.6494C12.9425 9.40125 13.9844 7.78331 15.2346 6.36147C15.8352 5.67507 18.6421 2.70884 24.023 2.70884C29.4039 2.70884 32.2108 5.66282 32.8114 6.34922C34.0617 7.77105 35.1035 9.389 35.3854 12.6371C35.5938 15.0028 35.4099 17.5278 35.3241 18.827C35.2996 19.256 35.4222 19.4154 35.7777 19.4154C35.8635 19.4154 35.937 19.4031 36.0228 19.3786C36.6847 19.2193 37.8369 18.6187 39.0258 18.3613C39.2219 18.3122 39.418 18.3 39.6142 18.3C40.2393 18.3 40.8399 18.5451 41.085 19.1825C41.4405 20.114 40.9625 20.8617 39.8838 21.6217C39.2342 22.0752 36.8808 23.5338 36.3415 24.0241C35.7899 24.5266 35.8635 24.9188 35.9248 25.4214C35.9738 25.8381 37.1627 31.3906 44.5906 34.982C45.0318 35.1904 45.7673 35.6439 44.468 36.367Z" fill="#8E0E42"/>
</svg>
