<svg width="30" height="30" viewBox="0 0 30 30" fill="none" xmlns="http://www.w3.org/2000/svg">
<circle cx="15" cy="15" r="15" fill="#FE6002"/>
<path fill-rule="evenodd" clip-rule="evenodd" d="M15.5 7C16.218 7 16.8 7.59695 16.8 8.33333L16.8 18.4477L19.7808 15.3905C20.2884 14.8698 21.1116 14.8698 21.6192 15.3905C22.1269 15.9112 22.1269 16.7554 21.6192 17.2761L16.4192 22.6095C16.1754 22.8595 15.8448 23 15.5 23C15.1552 23 14.8246 22.8595 14.5808 22.6095L9.38076 17.2761C8.87308 16.7554 8.87308 15.9112 9.38076 15.3905C9.88844 14.8698 10.7116 14.8698 11.2192 15.3905L14.2 18.4477L14.2 8.33333C14.2 7.59695 14.782 7 15.5 7Z" fill="white"/>
</svg>
