<svg width="1920" height="841" viewBox="0 0 1920 841" fill="none" xmlns="http://www.w3.org/2000/svg">
    <g clip-path="url(#clip0_40_12)">
    <rect y="-3" width="1922" height="844" fill="#212529"/>
    <path fill-rule="evenodd" clip-rule="evenodd" d="M1880.3 96.9612C1879.07 96.3621 1877.94 95.4283 1876.97 94.2133C1878.4 94.1633 1879.82 93.9375 1881.22 93.5384C1884.31 92.5038 1887.17 90.3802 1889.52 87.3678C1894.11 81.3176 1896.21 74.6649 1898.12 66.8551C1899.67 59.8777 1900.89 52.7582 1901.74 45.5471C1902.17 43.1367 1902.45 40.7262 1902.88 38.3158C1903.02 37.7132 1903.22 37.0383 1903.34 36.4598C1903.46 35.8813 1903.5 36.1465 1903.15 36.4598C1902.81 36.7732 1903.43 36.1946 1904.25 35.8813C1912.7 41.0637 1914.57 58.274 1908.23 74.9782C1901.88 91.6824 1889.31 101.951 1880.34 97.1781L1880.3 96.9612ZM1876.4 93.6348C1870.9 86.4035 1870.4 71.7242 1875.78 57.4786C1880.79 44.1972 1889.54 35.2064 1897.39 34.1217C1897.17 34.9171 1897.05 35.6885 1896.96 35.9777C1896.62 38.7256 1896.41 41.4734 1896.21 44.1972C1895.91 51.3443 1895.31 58.4598 1894.4 65.5053C1893.2 72.9294 1891.82 79.4857 1888.11 85.7528C1886.17 88.7718 1883.7 91.0241 1880.94 92.285C1879.46 92.9346 1877.94 93.3628 1876.4 93.5625V93.6348Z" fill="#F8F9FA" fill-opacity="0.15"/>
    <path fill-rule="evenodd" clip-rule="evenodd" d="M1880.3 96.9612C1879.07 96.3621 1877.94 95.4283 1876.97 94.2133C1878.4 94.1633 1879.82 93.9375 1881.22 93.5384C1884.31 92.5038 1887.17 90.3802 1889.52 87.3678C1894.11 81.3176 1896.21 74.6649 1898.12 66.8551C1899.67 59.8777 1900.89 52.7582 1901.74 45.5471C1902.17 43.1367 1902.45 40.7262 1902.88 38.3158C1903.02 37.7132 1903.22 37.0383 1903.34 36.4598C1903.46 35.8813 1903.5 36.1465 1903.15 36.4598C1902.81 36.7732 1903.43 36.1946 1904.25 35.8813C1912.7 41.0637 1914.57 58.274 1908.23 74.9782C1901.88 91.6824 1889.31 101.951 1880.34 97.1781L1880.3 96.9612ZM1876.4 93.6348C1870.9 86.4035 1870.4 71.7242 1875.78 57.4786C1880.79 44.1972 1889.54 35.2064 1897.39 34.1217C1897.17 34.9171 1897.05 35.6885 1896.96 35.9777C1896.62 38.7256 1896.41 41.4734 1896.21 44.1972C1895.91 51.3443 1895.31 58.4598 1894.4 65.5053C1893.2 72.9294 1891.82 79.4857 1888.11 85.7528C1886.17 88.7718 1883.7 91.0241 1880.94 92.285C1879.46 92.9346 1877.94 93.3628 1876.4 93.5625V93.6348Z" fill="black" fill-opacity="0.2"/>
    <path fill-rule="evenodd" clip-rule="evenodd" d="M1832.3 189.291C1831.07 188.691 1829.94 187.758 1828.97 186.543C1830.4 186.493 1831.82 186.267 1833.22 185.868C1836.31 184.833 1839.17 182.71 1841.52 179.697C1846.11 173.647 1848.21 166.994 1850.12 159.184C1851.67 152.207 1852.89 145.088 1853.74 137.876C1854.17 135.466 1854.45 133.056 1854.88 130.645C1855.02 130.043 1855.22 129.368 1855.34 128.789C1855.46 128.211 1855.5 128.476 1855.15 128.789C1854.81 129.103 1855.43 128.524 1856.25 128.211C1864.7 133.393 1866.57 150.603 1860.23 167.308C1853.88 184.012 1841.31 194.28 1832.34 189.507L1832.3 189.291ZM1828.4 185.964C1822.9 178.733 1822.4 164.054 1827.78 149.808C1832.79 136.527 1841.54 127.536 1849.39 126.451C1849.17 127.246 1849.05 128.018 1848.96 128.307C1848.62 131.055 1848.41 133.803 1848.21 136.527C1847.91 143.674 1847.31 150.789 1846.4 157.835C1845.2 165.259 1843.82 171.815 1840.11 178.082C1838.17 181.101 1835.7 183.353 1832.94 184.614C1831.46 185.264 1829.94 185.692 1828.4 185.892V185.964Z" fill="#F8F9FA" fill-opacity="0.15"/>
    <path fill-rule="evenodd" clip-rule="evenodd" d="M1832.3 189.291C1831.07 188.691 1829.94 187.758 1828.97 186.543C1830.4 186.493 1831.82 186.267 1833.22 185.868C1836.31 184.833 1839.17 182.71 1841.52 179.697C1846.11 173.647 1848.21 166.994 1850.12 159.184C1851.67 152.207 1852.89 145.088 1853.74 137.876C1854.17 135.466 1854.45 133.056 1854.88 130.645C1855.02 130.043 1855.22 129.368 1855.34 128.789C1855.46 128.211 1855.5 128.476 1855.15 128.789C1854.81 129.103 1855.43 128.524 1856.25 128.211C1864.7 133.393 1866.57 150.603 1860.23 167.308C1853.88 184.012 1841.31 194.28 1832.34 189.507L1832.3 189.291ZM1828.4 185.964C1822.9 178.733 1822.4 164.054 1827.78 149.808C1832.79 136.527 1841.54 127.536 1849.39 126.451C1849.17 127.246 1849.05 128.018 1848.96 128.307C1848.62 131.055 1848.41 133.803 1848.21 136.527C1847.91 143.674 1847.31 150.789 1846.4 157.835C1845.2 165.259 1843.82 171.815 1840.11 178.082C1838.17 181.101 1835.7 183.353 1832.94 184.614C1831.46 185.264 1829.94 185.692 1828.4 185.892V185.964Z" fill="black" fill-opacity="0.2"/>
    <path fill-rule="evenodd" clip-rule="evenodd" d="M1755.66 222.674C1753.79 221.757 1752.06 220.327 1750.58 218.466C1752.75 218.39 1754.92 218.044 1757.05 217.433C1761.78 215.849 1766.14 212.597 1769.72 207.984C1776.72 198.72 1779.92 188.533 1782.83 176.574C1785.2 165.89 1787.05 154.988 1788.36 143.946C1789.02 140.255 1789.43 136.564 1790.09 132.873C1790.3 131.951 1790.61 130.917 1790.8 130.031C1790.98 129.145 1791.03 129.551 1790.51 130.031C1789.99 130.511 1790.93 129.625 1792.19 129.145C1805.06 137.081 1807.92 163.434 1798.24 189.013C1788.57 214.591 1769.4 230.314 1755.72 223.006L1755.66 222.674ZM1749.71 217.58C1741.32 206.508 1740.56 184.03 1748.77 162.216C1756.4 141.879 1769.74 128.112 1781.73 126.451C1781.39 127.669 1781.2 128.85 1781.07 129.293C1780.55 133.501 1780.23 137.708 1779.92 141.879C1779.47 152.823 1778.55 163.719 1777.16 174.507C1775.33 185.875 1773.23 195.915 1767.57 205.511C1764.61 210.134 1760.84 213.583 1756.63 215.514C1754.38 216.508 1752.06 217.164 1749.71 217.47V217.58Z" fill="#F8F9FA" fill-opacity="0.15"/>
    <path fill-rule="evenodd" clip-rule="evenodd" d="M1755.66 222.674C1753.79 221.757 1752.06 220.327 1750.58 218.466C1752.75 218.39 1754.92 218.044 1757.05 217.433C1761.78 215.849 1766.14 212.597 1769.72 207.984C1776.72 198.72 1779.92 188.533 1782.83 176.574C1785.2 165.89 1787.05 154.988 1788.36 143.946C1789.02 140.255 1789.43 136.564 1790.09 132.873C1790.3 131.951 1790.61 130.917 1790.8 130.031C1790.98 129.145 1791.03 129.551 1790.51 130.031C1789.99 130.511 1790.93 129.625 1792.19 129.145C1805.06 137.081 1807.92 163.434 1798.24 189.013C1788.57 214.591 1769.4 230.314 1755.72 223.006L1755.66 222.674ZM1749.71 217.58C1741.32 206.508 1740.56 184.03 1748.77 162.216C1756.4 141.879 1769.74 128.112 1781.73 126.451C1781.39 127.669 1781.2 128.85 1781.07 129.293C1780.55 133.501 1780.23 137.708 1779.92 141.879C1779.47 152.823 1778.55 163.719 1777.16 174.507C1775.33 185.875 1773.23 195.915 1767.57 205.511C1764.61 210.134 1760.84 213.583 1756.63 215.514C1754.38 216.508 1752.06 217.164 1749.71 217.47V217.58Z" fill="black" fill-opacity="0.2"/>
    <path fill-rule="evenodd" clip-rule="evenodd" d="M1795.66 96.2229C1793.79 95.3056 1792.06 93.8757 1790.58 92.0153C1792.75 91.9387 1794.92 91.5929 1797.05 90.9818C1801.78 89.3977 1806.14 86.1458 1809.72 81.533C1816.72 72.2688 1819.92 62.0817 1822.83 50.123C1825.2 39.4389 1827.05 28.5371 1828.36 17.4951C1829.02 13.8042 1829.43 10.1132 1830.09 6.42227C1830.3 5.49953 1830.61 4.46605 1830.8 3.58022C1830.98 2.69439 1831.03 3.1004 1830.51 3.58022C1829.99 4.06004 1830.93 3.1742 1832.19 2.69437C1845.06 10.6299 1847.92 36.9833 1838.24 62.5615C1828.57 88.1398 1809.4 103.863 1795.72 96.5551L1795.66 96.2229ZM1789.71 91.1294C1781.32 80.0566 1780.56 57.5788 1788.77 35.7653C1796.4 15.4282 1809.74 1.66093 1821.73 0C1821.39 1.21801 1821.2 2.39913 1821.07 2.84204C1820.55 7.04972 1820.23 11.2574 1819.92 15.4281C1819.47 26.372 1818.55 37.2678 1817.16 48.0561C1815.33 59.4242 1813.23 69.4636 1807.57 79.06C1804.61 83.683 1800.84 87.1319 1796.63 89.0625C1794.38 90.0572 1792.06 90.7129 1789.71 91.0187V91.1294Z" fill="#F8F9FA" fill-opacity="0.15"/>
    <path fill-rule="evenodd" clip-rule="evenodd" d="M1795.66 96.2229C1793.79 95.3056 1792.06 93.8757 1790.58 92.0153C1792.75 91.9387 1794.92 91.5929 1797.05 90.9818C1801.78 89.3977 1806.14 86.1458 1809.72 81.533C1816.72 72.2688 1819.92 62.0817 1822.83 50.123C1825.2 39.4389 1827.05 28.5371 1828.36 17.4951C1829.02 13.8042 1829.43 10.1132 1830.09 6.42227C1830.3 5.49953 1830.61 4.46605 1830.8 3.58022C1830.98 2.69439 1831.03 3.1004 1830.51 3.58022C1829.99 4.06004 1830.93 3.1742 1832.19 2.69437C1845.06 10.6299 1847.92 36.9833 1838.24 62.5615C1828.57 88.1398 1809.4 103.863 1795.72 96.5551L1795.66 96.2229ZM1789.71 91.1294C1781.32 80.0566 1780.56 57.5788 1788.77 35.7653C1796.4 15.4282 1809.74 1.66093 1821.73 0C1821.39 1.21801 1821.2 2.39913 1821.07 2.84204C1820.55 7.04972 1820.23 11.2574 1819.92 15.4281C1819.47 26.372 1818.55 37.2678 1817.16 48.0561C1815.33 59.4242 1813.23 69.4636 1807.57 79.06C1804.61 83.683 1800.84 87.1319 1796.63 89.0625C1794.38 90.0572 1792.06 90.7129 1789.71 91.0187V91.1294Z" fill="black" fill-opacity="0.2"/>
    <path fill-rule="evenodd" clip-rule="evenodd" d="M1782.3 287.641C1781.07 287.042 1779.94 286.108 1778.97 284.894C1780.4 284.843 1781.82 284.618 1783.22 284.219C1786.31 283.184 1789.17 281.06 1791.52 278.048C1796.11 271.998 1798.21 265.345 1800.12 257.535C1801.67 250.558 1802.89 243.438 1803.74 236.227C1804.17 233.817 1804.45 231.406 1804.88 228.996C1805.02 228.393 1805.22 227.718 1805.34 227.14C1805.46 226.561 1805.5 226.827 1805.15 227.14C1804.81 227.453 1805.43 226.875 1806.25 226.561C1814.7 231.744 1816.57 248.954 1810.23 265.658C1803.88 282.363 1791.31 292.631 1782.34 287.858L1782.3 287.641ZM1778.4 284.315C1772.9 277.084 1772.4 262.404 1777.78 248.159C1782.79 234.877 1791.54 225.887 1799.39 224.802C1799.17 225.597 1799.05 226.369 1798.96 226.658C1798.62 229.406 1798.41 232.154 1798.21 234.877C1797.91 242.024 1797.31 249.14 1796.4 256.185C1795.2 263.61 1793.82 270.166 1790.11 276.433C1788.17 279.452 1785.7 281.704 1782.94 282.965C1781.46 283.615 1779.94 284.043 1778.4 284.243V284.315Z" fill="#F8F9FA" fill-opacity="0.15"/>
    <path fill-rule="evenodd" clip-rule="evenodd" d="M1782.3 287.641C1781.07 287.042 1779.94 286.108 1778.97 284.894C1780.4 284.843 1781.82 284.618 1783.22 284.219C1786.31 283.184 1789.17 281.06 1791.52 278.048C1796.11 271.998 1798.21 265.345 1800.12 257.535C1801.67 250.558 1802.89 243.438 1803.74 236.227C1804.17 233.817 1804.45 231.406 1804.88 228.996C1805.02 228.393 1805.22 227.718 1805.34 227.14C1805.46 226.561 1805.5 226.827 1805.15 227.14C1804.81 227.453 1805.43 226.875 1806.25 226.561C1814.7 231.744 1816.57 248.954 1810.23 265.658C1803.88 282.363 1791.31 292.631 1782.34 287.858L1782.3 287.641ZM1778.4 284.315C1772.9 277.084 1772.4 262.404 1777.78 248.159C1782.79 234.877 1791.54 225.887 1799.39 224.802C1799.17 225.597 1799.05 226.369 1798.96 226.658C1798.62 229.406 1798.41 232.154 1798.21 234.877C1797.91 242.024 1797.31 249.14 1796.4 256.185C1795.2 263.61 1793.82 270.166 1790.11 276.433C1788.17 279.452 1785.7 281.704 1782.94 282.965C1781.46 283.615 1779.94 284.043 1778.4 284.243V284.315Z" fill="black" fill-opacity="0.2"/>
    <path fill-rule="evenodd" clip-rule="evenodd" d="M1697.66 358.157C1695.79 357.24 1694.06 355.81 1692.58 353.95C1694.75 353.873 1696.92 353.527 1699.05 352.916C1703.78 351.332 1708.14 348.08 1711.72 343.467C1718.72 334.203 1721.92 324.016 1724.83 312.057C1727.2 301.373 1729.05 290.471 1730.36 279.429C1731.02 275.738 1731.43 272.048 1732.09 268.357C1732.3 267.434 1732.61 266.4 1732.8 265.515C1732.98 264.629 1733.03 265.035 1732.51 265.515C1731.99 265.994 1732.93 265.109 1734.19 264.629C1747.06 272.564 1749.92 298.918 1740.24 324.496C1730.57 350.074 1711.4 365.797 1697.72 358.489L1697.66 358.157ZM1691.71 353.064C1683.32 341.991 1682.56 319.513 1690.77 297.7C1698.4 277.362 1711.74 263.595 1723.73 261.934C1723.39 263.152 1723.2 264.333 1723.07 264.776C1722.55 268.984 1722.23 273.192 1721.92 277.362C1721.47 288.306 1720.55 299.202 1719.16 309.99C1717.33 321.359 1715.23 331.398 1709.57 340.994C1706.61 345.617 1702.84 349.066 1698.63 350.997C1696.38 351.992 1694.06 352.647 1691.71 352.953V353.064Z" fill="#F8F9FA" fill-opacity="0.15"/>
    <path fill-rule="evenodd" clip-rule="evenodd" d="M1697.66 358.157C1695.79 357.24 1694.06 355.81 1692.58 353.95C1694.75 353.873 1696.92 353.527 1699.05 352.916C1703.78 351.332 1708.14 348.08 1711.72 343.467C1718.72 334.203 1721.92 324.016 1724.83 312.057C1727.2 301.373 1729.05 290.471 1730.36 279.429C1731.02 275.738 1731.43 272.048 1732.09 268.357C1732.3 267.434 1732.61 266.4 1732.8 265.515C1732.98 264.629 1733.03 265.035 1732.51 265.515C1731.99 265.994 1732.93 265.109 1734.19 264.629C1747.06 272.564 1749.92 298.918 1740.24 324.496C1730.57 350.074 1711.4 365.797 1697.72 358.489L1697.66 358.157ZM1691.71 353.064C1683.32 341.991 1682.56 319.513 1690.77 297.7C1698.4 277.362 1711.74 263.595 1723.73 261.934C1723.39 263.152 1723.2 264.333 1723.07 264.776C1722.55 268.984 1722.23 273.192 1721.92 277.362C1721.47 288.306 1720.55 299.202 1719.16 309.99C1717.33 321.359 1715.23 331.398 1709.57 340.994C1706.61 345.617 1702.84 349.066 1698.63 350.997C1696.38 351.992 1694.06 352.647 1691.71 352.953V353.064Z" fill="black" fill-opacity="0.2"/>
    <path fill-rule="evenodd" clip-rule="evenodd" d="M1880.3 365.921C1879.07 365.322 1877.94 364.388 1876.97 363.173C1878.4 363.123 1879.82 362.897 1881.22 362.498C1884.31 361.463 1887.17 359.34 1889.52 356.327C1894.11 350.277 1896.21 343.624 1898.12 335.815C1899.67 328.837 1900.89 321.718 1901.74 314.507C1902.17 312.096 1902.45 309.686 1902.88 307.275C1903.02 306.673 1903.22 305.998 1903.34 305.419C1903.46 304.841 1903.5 305.106 1903.15 305.419C1902.81 305.733 1903.43 305.154 1904.25 304.841C1912.7 310.023 1914.57 327.234 1908.23 343.938C1901.88 360.642 1889.31 370.91 1880.34 366.138L1880.3 365.921ZM1876.4 362.594C1870.9 355.363 1870.4 340.684 1875.78 326.438C1880.79 313.157 1889.54 304.166 1897.39 303.081C1897.17 303.877 1897.05 304.648 1896.96 304.937C1896.62 307.685 1896.41 310.433 1896.21 313.157C1895.91 320.304 1895.31 327.419 1894.4 334.465C1893.2 341.889 1891.82 348.445 1888.11 354.712C1886.17 357.731 1883.7 359.984 1880.94 361.244C1879.46 361.894 1877.94 362.322 1876.4 362.522V362.594Z" fill="#F8F9FA" fill-opacity="0.15"/>
    <path fill-rule="evenodd" clip-rule="evenodd" d="M1880.3 365.921C1879.07 365.322 1877.94 364.388 1876.97 363.173C1878.4 363.123 1879.82 362.897 1881.22 362.498C1884.31 361.463 1887.17 359.34 1889.52 356.327C1894.11 350.277 1896.21 343.624 1898.12 335.815C1899.67 328.837 1900.89 321.718 1901.74 314.507C1902.17 312.096 1902.45 309.686 1902.88 307.275C1903.02 306.673 1903.22 305.998 1903.34 305.419C1903.46 304.841 1903.5 305.106 1903.15 305.419C1902.81 305.733 1903.43 305.154 1904.25 304.841C1912.7 310.023 1914.57 327.234 1908.23 343.938C1901.88 360.642 1889.31 370.91 1880.34 366.138L1880.3 365.921ZM1876.4 362.594C1870.9 355.363 1870.4 340.684 1875.78 326.438C1880.79 313.157 1889.54 304.166 1897.39 303.081C1897.17 303.877 1897.05 304.648 1896.96 304.937C1896.62 307.685 1896.41 310.433 1896.21 313.157C1895.91 320.304 1895.31 327.419 1894.4 334.465C1893.2 341.889 1891.82 348.445 1888.11 354.712C1886.17 357.731 1883.7 359.984 1880.94 361.244C1879.46 361.894 1877.94 362.322 1876.4 362.522V362.594Z" fill="black" fill-opacity="0.2"/>
    <path fill-rule="evenodd" clip-rule="evenodd" d="M1764.66 456.508C1762.79 455.591 1761.06 454.161 1759.58 452.3C1761.75 452.224 1763.92 451.878 1766.05 451.267C1770.78 449.683 1775.14 446.431 1778.72 441.818C1785.72 432.554 1788.92 422.367 1791.83 410.408C1794.2 399.724 1796.05 388.822 1797.36 377.78C1798.02 374.089 1798.43 370.398 1799.09 366.707C1799.3 365.785 1799.61 364.751 1799.8 363.865C1799.98 362.98 1800.03 363.386 1799.51 363.865C1798.99 364.345 1799.93 363.459 1801.19 362.98C1814.06 370.915 1816.92 397.268 1807.24 422.847C1797.57 448.425 1778.4 464.148 1764.72 456.84L1764.66 456.508ZM1758.71 451.415C1750.32 440.342 1749.56 417.864 1757.77 396.05C1765.4 375.713 1778.74 361.946 1790.73 360.285C1790.39 361.503 1790.2 362.684 1790.07 363.127C1789.55 367.335 1789.23 371.543 1788.92 375.713C1788.47 386.657 1787.55 397.553 1786.16 408.341C1784.33 419.709 1782.23 429.749 1776.57 439.345C1773.61 443.968 1769.84 447.417 1765.63 449.348C1763.38 450.342 1761.06 450.998 1758.71 451.304V451.415Z" fill="#F8F9FA" fill-opacity="0.15"/>
    <path fill-rule="evenodd" clip-rule="evenodd" d="M1764.66 456.508C1762.79 455.591 1761.06 454.161 1759.58 452.3C1761.75 452.224 1763.92 451.878 1766.05 451.267C1770.78 449.683 1775.14 446.431 1778.72 441.818C1785.72 432.554 1788.92 422.367 1791.83 410.408C1794.2 399.724 1796.05 388.822 1797.36 377.78C1798.02 374.089 1798.43 370.398 1799.09 366.707C1799.3 365.785 1799.61 364.751 1799.8 363.865C1799.98 362.98 1800.03 363.386 1799.51 363.865C1798.99 364.345 1799.93 363.459 1801.19 362.98C1814.06 370.915 1816.92 397.268 1807.24 422.847C1797.57 448.425 1778.4 464.148 1764.72 456.84L1764.66 456.508ZM1758.71 451.415C1750.32 440.342 1749.56 417.864 1757.77 396.05C1765.4 375.713 1778.74 361.946 1790.73 360.285C1790.39 361.503 1790.2 362.684 1790.07 363.127C1789.55 367.335 1789.23 371.543 1788.92 375.713C1788.47 386.657 1787.55 397.553 1786.16 408.341C1784.33 419.709 1782.23 429.749 1776.57 439.345C1773.61 443.968 1769.84 447.417 1765.63 449.348C1763.38 450.342 1761.06 450.998 1758.71 451.304V451.415Z" fill="black" fill-opacity="0.2"/>
    <path fill-rule="evenodd" clip-rule="evenodd" d="M1873.66 271.849C1871.79 270.932 1870.06 269.502 1868.58 267.642C1870.75 267.565 1872.92 267.219 1875.05 266.608C1879.78 265.024 1884.14 261.772 1887.72 257.159C1894.72 247.895 1897.92 237.708 1900.83 225.75C1903.2 215.065 1905.05 204.164 1906.36 193.122C1907.02 189.431 1907.43 185.74 1908.09 182.049C1908.3 181.126 1908.61 180.093 1908.8 179.207C1908.98 178.321 1909.03 178.727 1908.51 179.207C1907.99 179.687 1908.93 178.801 1910.19 178.321C1923.06 186.256 1925.92 212.61 1916.24 238.188C1906.57 263.766 1887.4 279.49 1873.72 272.182L1873.66 271.849ZM1867.71 266.756C1859.32 255.683 1858.56 233.205 1866.77 211.392C1874.4 191.055 1887.74 177.287 1899.73 175.626C1899.39 176.844 1899.2 178.026 1899.07 178.469C1898.55 182.676 1898.23 186.884 1897.92 191.055C1897.47 201.998 1896.55 212.894 1895.16 223.683C1893.33 235.051 1891.23 245.09 1885.57 254.687C1882.61 259.309 1878.84 262.758 1874.63 264.689C1872.38 265.684 1870.06 266.339 1867.71 266.645V266.756Z" fill="#F8F9FA" fill-opacity="0.15"/>
    <path fill-rule="evenodd" clip-rule="evenodd" d="M1873.66 271.849C1871.79 270.932 1870.06 269.502 1868.58 267.642C1870.75 267.565 1872.92 267.219 1875.05 266.608C1879.78 265.024 1884.14 261.772 1887.72 257.159C1894.72 247.895 1897.92 237.708 1900.83 225.75C1903.2 215.065 1905.05 204.164 1906.36 193.122C1907.02 189.431 1907.43 185.74 1908.09 182.049C1908.3 181.126 1908.61 180.093 1908.8 179.207C1908.98 178.321 1909.03 178.727 1908.51 179.207C1907.99 179.687 1908.93 178.801 1910.19 178.321C1923.06 186.256 1925.92 212.61 1916.24 238.188C1906.57 263.766 1887.4 279.49 1873.72 272.182L1873.66 271.849ZM1867.71 266.756C1859.32 255.683 1858.56 233.205 1866.77 211.392C1874.4 191.055 1887.74 177.287 1899.73 175.626C1899.39 176.844 1899.2 178.026 1899.07 178.469C1898.55 182.676 1898.23 186.884 1897.92 191.055C1897.47 201.998 1896.55 212.894 1895.16 223.683C1893.33 235.051 1891.23 245.09 1885.57 254.687C1882.61 259.309 1878.84 262.758 1874.63 264.689C1872.38 265.684 1870.06 266.339 1867.71 266.645V266.756Z" fill="black" fill-opacity="0.2"/>
    <path fill-rule="evenodd" clip-rule="evenodd" d="M41.6957 96.9612C42.9258 96.3621 44.0593 95.4283 45.0312 94.2133C43.6042 94.1633 42.1832 93.9375 40.7845 93.5384C37.6875 92.5038 34.8295 90.3802 32.4802 87.3678C27.8896 81.3176 25.7921 74.6649 23.8836 66.8551C22.3266 59.8777 21.1145 52.7582 20.2559 45.5471C19.826 43.1367 19.551 40.7262 19.1211 38.3158C18.9836 37.7132 18.7773 37.0383 18.6569 36.4598C18.5366 35.8813 18.5022 36.1465 18.846 36.4598C19.1899 36.7732 18.571 36.1946 17.7457 35.8813C9.30386 41.0637 7.42981 58.274 13.7741 74.9782C20.1183 91.6824 32.6865 101.951 41.6613 97.1781L41.6957 96.9612ZM45.5986 93.6348C51.1004 86.4035 51.599 71.7242 46.2175 57.4786C41.2143 44.1972 32.463 35.2064 24.6057 34.1217C24.8292 34.9171 24.9496 35.6885 25.0356 35.9777C25.3794 38.7256 25.5857 41.4734 25.7921 44.1972C26.0883 51.3443 26.6911 58.4598 27.5973 65.5053C28.8009 72.9294 30.1763 79.4857 33.89 85.7528C35.8312 88.7718 38.3033 91.0241 41.0596 92.285C42.5361 92.9346 44.0576 93.3628 45.5986 93.5625V93.6348Z" fill="#F8F9FA" fill-opacity="0.15"/>
    <path fill-rule="evenodd" clip-rule="evenodd" d="M41.6957 96.9612C42.9258 96.3621 44.0593 95.4283 45.0312 94.2133C43.6042 94.1633 42.1832 93.9375 40.7845 93.5384C37.6875 92.5038 34.8295 90.3802 32.4802 87.3678C27.8896 81.3176 25.7921 74.6649 23.8836 66.8551C22.3266 59.8777 21.1145 52.7582 20.2559 45.5471C19.826 43.1367 19.551 40.7262 19.1211 38.3158C18.9836 37.7132 18.7773 37.0383 18.6569 36.4598C18.5366 35.8813 18.5022 36.1465 18.846 36.4598C19.1899 36.7732 18.571 36.1946 17.7457 35.8813C9.30386 41.0637 7.42981 58.274 13.7741 74.9782C20.1183 91.6824 32.6865 101.951 41.6613 97.1781L41.6957 96.9612ZM45.5986 93.6348C51.1004 86.4035 51.599 71.7242 46.2175 57.4786C41.2143 44.1972 32.463 35.2064 24.6057 34.1217C24.8292 34.9171 24.9496 35.6885 25.0356 35.9777C25.3794 38.7256 25.5857 41.4734 25.7921 44.1972C26.0883 51.3443 26.6911 58.4598 27.5973 65.5053C28.8009 72.9294 30.1763 79.4857 33.89 85.7528C35.8312 88.7718 38.3033 91.0241 41.0596 92.285C42.5361 92.9346 44.0576 93.3628 45.5986 93.5625V93.6348Z" fill="black" fill-opacity="0.2"/>
    <path fill-rule="evenodd" clip-rule="evenodd" d="M89.6957 189.291C90.9258 188.691 92.0593 187.758 93.0312 186.543C91.6042 186.493 90.1832 186.267 88.7845 185.868C85.6875 184.833 82.8295 182.71 80.4802 179.697C75.8896 173.647 73.7921 166.994 71.8836 159.184C70.3266 152.207 69.1145 145.088 68.2559 137.876C67.826 135.466 67.551 133.056 67.1211 130.645C66.9836 130.043 66.7773 129.368 66.6569 128.789C66.5366 128.211 66.5022 128.476 66.846 128.789C67.1899 129.103 66.571 128.524 65.7457 128.211C57.3039 133.393 55.4298 150.603 61.7741 167.308C68.1183 184.012 80.6865 194.28 89.6613 189.507L89.6957 189.291ZM93.5986 185.964C99.1004 178.733 99.599 164.054 94.2175 149.808C89.2143 136.527 80.463 127.536 72.6057 126.451C72.8292 127.246 72.9496 128.018 73.0356 128.307C73.3794 131.055 73.5857 133.803 73.7921 136.527C74.0883 143.674 74.6911 150.789 75.5973 157.835C76.8009 165.259 78.1763 171.815 81.89 178.082C83.8312 181.101 86.3033 183.353 89.0596 184.614C90.5361 185.264 92.0576 185.692 93.5986 185.892V185.964Z" fill="#F8F9FA" fill-opacity="0.15"/>
    <path fill-rule="evenodd" clip-rule="evenodd" d="M89.6957 189.291C90.9258 188.691 92.0593 187.758 93.0312 186.543C91.6042 186.493 90.1832 186.267 88.7845 185.868C85.6875 184.833 82.8295 182.71 80.4802 179.697C75.8896 173.647 73.7921 166.994 71.8836 159.184C70.3266 152.207 69.1145 145.088 68.2559 137.876C67.826 135.466 67.551 133.056 67.1211 130.645C66.9836 130.043 66.7773 129.368 66.6569 128.789C66.5366 128.211 66.5022 128.476 66.846 128.789C67.1899 129.103 66.571 128.524 65.7457 128.211C57.3039 133.393 55.4298 150.603 61.7741 167.308C68.1183 184.012 80.6865 194.28 89.6613 189.507L89.6957 189.291ZM93.5986 185.964C99.1004 178.733 99.599 164.054 94.2175 149.808C89.2143 136.527 80.463 127.536 72.6057 126.451C72.8292 127.246 72.9496 128.018 73.0356 128.307C73.3794 131.055 73.5857 133.803 73.7921 136.527C74.0883 143.674 74.6911 150.789 75.5973 157.835C76.8009 165.259 78.1763 171.815 81.89 178.082C83.8312 181.101 86.3033 183.353 89.0596 184.614C90.5361 185.264 92.0576 185.692 93.5986 185.892V185.964Z" fill="black" fill-opacity="0.2"/>
    <path fill-rule="evenodd" clip-rule="evenodd" d="M166.336 222.674C168.212 221.757 169.94 220.327 171.423 218.466C169.246 218.39 167.079 218.044 164.946 217.433C160.223 215.849 155.865 212.597 152.282 207.984C145.282 198.72 142.083 188.533 139.173 176.574C136.798 165.89 134.95 154.988 133.64 143.946C132.985 140.255 132.565 136.564 131.91 132.873C131.7 131.951 131.385 130.917 131.202 130.031C131.018 129.145 130.966 129.551 131.49 130.031C132.015 130.511 131.071 129.625 129.812 129.145C116.938 137.081 114.08 163.434 123.755 189.013C133.43 214.591 152.597 230.314 166.284 223.006L166.336 222.674ZM172.288 217.58C180.678 206.508 181.438 184.03 173.232 162.216C165.602 141.879 152.256 128.112 140.274 126.451C140.615 127.669 140.798 128.85 140.929 129.293C141.454 133.501 141.768 137.708 142.083 141.879C142.535 152.823 143.454 163.719 144.836 174.507C146.671 185.875 148.769 195.915 154.432 205.511C157.393 210.134 161.163 213.583 165.366 215.514C167.618 216.508 169.938 217.164 172.288 217.47V217.58Z" fill="#F8F9FA" fill-opacity="0.15"/>
    <path fill-rule="evenodd" clip-rule="evenodd" d="M166.336 222.674C168.212 221.757 169.94 220.327 171.423 218.466C169.246 218.39 167.079 218.044 164.946 217.433C160.223 215.849 155.865 212.597 152.282 207.984C145.282 198.72 142.083 188.533 139.173 176.574C136.798 165.89 134.95 154.988 133.64 143.946C132.985 140.255 132.565 136.564 131.91 132.873C131.7 131.951 131.385 130.917 131.202 130.031C131.018 129.145 130.966 129.551 131.49 130.031C132.015 130.511 131.071 129.625 129.812 129.145C116.938 137.081 114.08 163.434 123.755 189.013C133.43 214.591 152.597 230.314 166.284 223.006L166.336 222.674ZM172.288 217.58C180.678 206.508 181.438 184.03 173.232 162.216C165.602 141.879 152.256 128.112 140.274 126.451C140.615 127.669 140.798 128.85 140.929 129.293C141.454 133.501 141.768 137.708 142.083 141.879C142.535 152.823 143.454 163.719 144.836 174.507C146.671 185.875 148.769 195.915 154.432 205.511C157.393 210.134 161.163 213.583 165.366 215.514C167.618 216.508 169.938 217.164 172.288 217.47V217.58Z" fill="black" fill-opacity="0.2"/>
    <path fill-rule="evenodd" clip-rule="evenodd" d="M126.336 96.2229C128.212 95.3056 129.94 93.8757 131.423 92.0153C129.246 91.9387 127.079 91.5929 124.946 90.9818C120.223 89.3977 115.865 86.1458 112.282 81.533C105.282 72.2688 102.083 62.0817 99.1725 50.123C96.798 39.4389 94.9495 28.5371 93.6402 17.4951C92.9847 13.8042 92.5652 10.1132 91.9097 6.42227C91.7 5.49953 91.3853 4.46605 91.2018 3.58022C91.0183 2.69439 90.9658 3.1004 91.4902 3.58022C92.0146 4.06004 91.0707 3.1742 89.8122 2.69437C76.9384 10.6299 74.0805 36.9833 83.7555 62.5615C93.4305 88.1398 112.597 103.863 126.284 96.5551L126.336 96.2229ZM132.288 91.1294C140.678 80.0566 141.438 57.5788 133.232 35.7653C125.602 15.4282 112.256 1.66093 100.274 0C100.615 1.21801 100.798 2.39913 100.929 2.84204C101.454 7.04972 101.768 11.2574 102.083 15.4281C102.535 26.372 103.454 37.2678 104.836 48.0561C106.671 59.4242 108.769 69.4636 114.432 79.06C117.393 83.683 121.163 87.1319 125.366 89.0625C127.618 90.0572 129.938 90.7129 132.288 91.0187V91.1294Z" fill="#F8F9FA" fill-opacity="0.15"/>
    <path fill-rule="evenodd" clip-rule="evenodd" d="M126.336 96.2229C128.212 95.3056 129.94 93.8757 131.423 92.0153C129.246 91.9387 127.079 91.5929 124.946 90.9818C120.223 89.3977 115.865 86.1458 112.282 81.533C105.282 72.2688 102.083 62.0817 99.1725 50.123C96.798 39.4389 94.9495 28.5371 93.6402 17.4951C92.9847 13.8042 92.5652 10.1132 91.9097 6.42227C91.7 5.49953 91.3853 4.46605 91.2018 3.58022C91.0183 2.69439 90.9658 3.1004 91.4902 3.58022C92.0146 4.06004 91.0707 3.1742 89.8122 2.69437C76.9384 10.6299 74.0805 36.9833 83.7555 62.5615C93.4305 88.1398 112.597 103.863 126.284 96.5551L126.336 96.2229ZM132.288 91.1294C140.678 80.0566 141.438 57.5788 133.232 35.7653C125.602 15.4282 112.256 1.66093 100.274 0C100.615 1.21801 100.798 2.39913 100.929 2.84204C101.454 7.04972 101.768 11.2574 102.083 15.4281C102.535 26.372 103.454 37.2678 104.836 48.0561C106.671 59.4242 108.769 69.4636 114.432 79.06C117.393 83.683 121.163 87.1319 125.366 89.0625C127.618 90.0572 129.938 90.7129 132.288 91.0187V91.1294Z" fill="black" fill-opacity="0.2"/>
    <path fill-rule="evenodd" clip-rule="evenodd" d="M139.696 287.641C140.926 287.042 142.059 286.108 143.031 284.894C141.604 284.843 140.183 284.618 138.784 284.219C135.687 283.184 132.829 281.06 130.48 278.048C125.89 271.998 123.792 265.345 121.884 257.535C120.327 250.558 119.114 243.438 118.256 236.227C117.826 233.817 117.551 231.406 117.121 228.996C116.984 228.393 116.777 227.718 116.657 227.14C116.537 226.561 116.502 226.827 116.846 227.14C117.19 227.453 116.571 226.875 115.746 226.561C107.304 231.744 105.43 248.954 111.774 265.658C118.118 282.363 130.687 292.631 139.661 287.858L139.696 287.641ZM143.599 284.315C149.1 277.084 149.599 262.404 144.218 248.159C139.214 234.877 130.463 225.887 122.606 224.802C122.829 225.597 122.95 226.369 123.036 226.658C123.379 229.406 123.586 232.154 123.792 234.877C124.088 242.024 124.691 249.14 125.597 256.185C126.801 263.61 128.176 270.166 131.89 276.433C133.831 279.452 136.303 281.704 139.06 282.965C140.536 283.615 142.058 284.043 143.599 284.243V284.315Z" fill="#F8F9FA" fill-opacity="0.15"/>
    <path fill-rule="evenodd" clip-rule="evenodd" d="M139.696 287.641C140.926 287.042 142.059 286.108 143.031 284.894C141.604 284.843 140.183 284.618 138.784 284.219C135.687 283.184 132.829 281.06 130.48 278.048C125.89 271.998 123.792 265.345 121.884 257.535C120.327 250.558 119.114 243.438 118.256 236.227C117.826 233.817 117.551 231.406 117.121 228.996C116.984 228.393 116.777 227.718 116.657 227.14C116.537 226.561 116.502 226.827 116.846 227.14C117.19 227.453 116.571 226.875 115.746 226.561C107.304 231.744 105.43 248.954 111.774 265.658C118.118 282.363 130.687 292.631 139.661 287.858L139.696 287.641ZM143.599 284.315C149.1 277.084 149.599 262.404 144.218 248.159C139.214 234.877 130.463 225.887 122.606 224.802C122.829 225.597 122.95 226.369 123.036 226.658C123.379 229.406 123.586 232.154 123.792 234.877C124.088 242.024 124.691 249.14 125.597 256.185C126.801 263.61 128.176 270.166 131.89 276.433C133.831 279.452 136.303 281.704 139.06 282.965C140.536 283.615 142.058 284.043 143.599 284.243V284.315Z" fill="black" fill-opacity="0.2"/>
    <path fill-rule="evenodd" clip-rule="evenodd" d="M224.336 358.157C226.212 357.24 227.94 355.81 229.423 353.95C227.246 353.873 225.079 353.527 222.946 352.916C218.223 351.332 213.865 348.08 210.282 343.467C203.282 334.203 200.083 324.016 197.173 312.057C194.798 301.373 192.95 290.471 191.64 279.429C190.985 275.738 190.565 272.048 189.91 268.357C189.7 267.434 189.385 266.4 189.202 265.515C189.018 264.629 188.966 265.035 189.49 265.515C190.015 265.994 189.071 265.109 187.812 264.629C174.938 272.564 172.08 298.918 181.755 324.496C191.43 350.074 210.597 365.797 224.284 358.489L224.336 358.157ZM230.288 353.064C238.678 341.991 239.438 319.513 231.232 297.7C223.602 277.362 210.256 263.595 198.274 261.934C198.615 263.152 198.798 264.333 198.929 264.776C199.454 268.984 199.768 273.192 200.083 277.362C200.535 288.306 201.454 299.202 202.836 309.99C204.671 321.359 206.769 331.398 212.432 340.994C215.393 345.617 219.163 349.066 223.366 350.997C225.618 351.992 227.938 352.647 230.288 352.953V353.064Z" fill="#F8F9FA" fill-opacity="0.15"/>
    <path fill-rule="evenodd" clip-rule="evenodd" d="M224.336 358.157C226.212 357.24 227.94 355.81 229.423 353.95C227.246 353.873 225.079 353.527 222.946 352.916C218.223 351.332 213.865 348.08 210.282 343.467C203.282 334.203 200.083 324.016 197.173 312.057C194.798 301.373 192.95 290.471 191.64 279.429C190.985 275.738 190.565 272.048 189.91 268.357C189.7 267.434 189.385 266.4 189.202 265.515C189.018 264.629 188.966 265.035 189.49 265.515C190.015 265.994 189.071 265.109 187.812 264.629C174.938 272.564 172.08 298.918 181.755 324.496C191.43 350.074 210.597 365.797 224.284 358.489L224.336 358.157ZM230.288 353.064C238.678 341.991 239.438 319.513 231.232 297.7C223.602 277.362 210.256 263.595 198.274 261.934C198.615 263.152 198.798 264.333 198.929 264.776C199.454 268.984 199.768 273.192 200.083 277.362C200.535 288.306 201.454 299.202 202.836 309.99C204.671 321.359 206.769 331.398 212.432 340.994C215.393 345.617 219.163 349.066 223.366 350.997C225.618 351.992 227.938 352.647 230.288 352.953V353.064Z" fill="black" fill-opacity="0.2"/>
    <path fill-rule="evenodd" clip-rule="evenodd" d="M41.6957 365.921C42.9258 365.322 44.0593 364.388 45.0312 363.173C43.6042 363.123 42.1832 362.897 40.7845 362.498C37.6875 361.463 34.8295 359.34 32.4802 356.327C27.8896 350.277 25.7921 343.624 23.8836 335.815C22.3266 328.837 21.1145 321.718 20.2559 314.507C19.826 312.096 19.551 309.686 19.1211 307.275C18.9836 306.673 18.7773 305.998 18.6569 305.419C18.5366 304.841 18.5022 305.106 18.846 305.419C19.1899 305.733 18.571 305.154 17.7457 304.841C9.30386 310.023 7.42981 327.234 13.7741 343.938C20.1183 360.642 32.6865 370.91 41.6613 366.138L41.6957 365.921ZM45.5986 362.594C51.1004 355.363 51.599 340.684 46.2175 326.438C41.2143 313.157 32.463 304.166 24.6057 303.081C24.8292 303.877 24.9496 304.648 25.0356 304.937C25.3794 307.685 25.5857 310.433 25.7921 313.157C26.0883 320.304 26.6911 327.419 27.5973 334.465C28.8009 341.889 30.1763 348.445 33.89 354.712C35.8312 357.731 38.3033 359.984 41.0596 361.244C42.5361 361.894 44.0576 362.322 45.5986 362.522V362.594Z" fill="#F8F9FA" fill-opacity="0.15"/>
    <path fill-rule="evenodd" clip-rule="evenodd" d="M41.6957 365.921C42.9258 365.322 44.0593 364.388 45.0312 363.173C43.6042 363.123 42.1832 362.897 40.7845 362.498C37.6875 361.463 34.8295 359.34 32.4802 356.327C27.8896 350.277 25.7921 343.624 23.8836 335.815C22.3266 328.837 21.1145 321.718 20.2559 314.507C19.826 312.096 19.551 309.686 19.1211 307.275C18.9836 306.673 18.7773 305.998 18.6569 305.419C18.5366 304.841 18.5022 305.106 18.846 305.419C19.1899 305.733 18.571 305.154 17.7457 304.841C9.30386 310.023 7.42981 327.234 13.7741 343.938C20.1183 360.642 32.6865 370.91 41.6613 366.138L41.6957 365.921ZM45.5986 362.594C51.1004 355.363 51.599 340.684 46.2175 326.438C41.2143 313.157 32.463 304.166 24.6057 303.081C24.8292 303.877 24.9496 304.648 25.0356 304.937C25.3794 307.685 25.5857 310.433 25.7921 313.157C26.0883 320.304 26.6911 327.419 27.5973 334.465C28.8009 341.889 30.1763 348.445 33.89 354.712C35.8312 357.731 38.3033 359.984 41.0596 361.244C42.5361 361.894 44.0576 362.322 45.5986 362.522V362.594Z" fill="black" fill-opacity="0.2"/>
    <path fill-rule="evenodd" clip-rule="evenodd" d="M157.336 456.508C159.212 455.591 160.94 454.161 162.423 452.3C160.246 452.224 158.079 451.878 155.946 451.267C151.223 449.683 146.865 446.431 143.282 441.818C136.282 432.554 133.083 422.367 130.173 410.408C127.798 399.724 125.95 388.822 124.64 377.78C123.985 374.089 123.565 370.398 122.91 366.707C122.7 365.785 122.385 364.751 122.202 363.865C122.018 362.98 121.966 363.386 122.49 363.865C123.015 364.345 122.071 363.459 120.812 362.98C107.938 370.915 105.08 397.268 114.755 422.847C124.43 448.425 143.597 464.148 157.284 456.84L157.336 456.508ZM163.288 451.415C171.678 440.342 172.438 417.864 164.232 396.05C156.602 375.713 143.256 361.946 131.274 360.285C131.615 361.503 131.798 362.684 131.929 363.127C132.454 367.335 132.768 371.543 133.083 375.713C133.535 386.657 134.454 397.553 135.836 408.341C137.671 419.709 139.769 429.749 145.432 439.345C148.393 443.968 152.163 447.417 156.366 449.348C158.618 450.342 160.938 450.998 163.288 451.304V451.415Z" fill="#F8F9FA" fill-opacity="0.15"/>
    <path fill-rule="evenodd" clip-rule="evenodd" d="M157.336 456.508C159.212 455.591 160.94 454.161 162.423 452.3C160.246 452.224 158.079 451.878 155.946 451.267C151.223 449.683 146.865 446.431 143.282 441.818C136.282 432.554 133.083 422.367 130.173 410.408C127.798 399.724 125.95 388.822 124.64 377.78C123.985 374.089 123.565 370.398 122.91 366.707C122.7 365.785 122.385 364.751 122.202 363.865C122.018 362.98 121.966 363.386 122.49 363.865C123.015 364.345 122.071 363.459 120.812 362.98C107.938 370.915 105.08 397.268 114.755 422.847C124.43 448.425 143.597 464.148 157.284 456.84L157.336 456.508ZM163.288 451.415C171.678 440.342 172.438 417.864 164.232 396.05C156.602 375.713 143.256 361.946 131.274 360.285C131.615 361.503 131.798 362.684 131.929 363.127C132.454 367.335 132.768 371.543 133.083 375.713C133.535 386.657 134.454 397.553 135.836 408.341C137.671 419.709 139.769 429.749 145.432 439.345C148.393 443.968 152.163 447.417 156.366 449.348C158.618 450.342 160.938 450.998 163.288 451.304V451.415Z" fill="black" fill-opacity="0.2"/>
    <path fill-rule="evenodd" clip-rule="evenodd" d="M48.336 271.849C50.2118 270.932 51.9404 269.502 53.4226 267.642C51.2465 267.565 49.0794 267.219 46.9463 266.608C42.2234 265.024 37.865 261.772 34.2823 257.159C27.2817 247.895 24.0829 237.708 21.1725 225.75C18.798 215.065 16.9495 204.164 15.6402 193.122C14.9847 189.431 14.5652 185.74 13.9097 182.049C13.7 181.126 13.3853 180.093 13.2018 179.207C13.0183 178.321 12.9658 178.727 13.4902 179.207C14.0146 179.687 13.0707 178.801 11.8122 178.321C-1.06162 186.256 -3.91954 212.61 5.75547 238.188C15.4305 263.766 34.5969 279.49 48.2835 272.182L48.336 271.849ZM54.2878 266.756C62.6781 255.683 63.4384 233.205 55.2317 211.392C47.6018 191.055 34.2561 177.287 22.2737 175.626C22.6146 176.844 22.7981 178.026 22.9292 178.469C23.4536 182.676 23.7683 186.884 24.0829 191.055C24.5346 201.998 25.454 212.894 26.836 223.683C28.6713 235.051 30.7689 245.09 36.4323 254.687C39.3926 259.309 43.1626 262.758 47.3658 264.689C49.6176 265.684 51.9378 266.339 54.2878 266.645V266.756Z" fill="#F8F9FA" fill-opacity="0.15"/>
    <path fill-rule="evenodd" clip-rule="evenodd" d="M48.336 271.849C50.2118 270.932 51.9404 269.502 53.4226 267.642C51.2465 267.565 49.0794 267.219 46.9463 266.608C42.2234 265.024 37.865 261.772 34.2823 257.159C27.2817 247.895 24.0829 237.708 21.1725 225.75C18.798 215.065 16.9495 204.164 15.6402 193.122C14.9847 189.431 14.5652 185.74 13.9097 182.049C13.7 181.126 13.3853 180.093 13.2018 179.207C13.0183 178.321 12.9658 178.727 13.4902 179.207C14.0146 179.687 13.0707 178.801 11.8122 178.321C-1.06162 186.256 -3.91954 212.61 5.75547 238.188C15.4305 263.766 34.5969 279.49 48.2835 272.182L48.336 271.849ZM54.2878 266.756C62.6781 255.683 63.4384 233.205 55.2317 211.392C47.6018 191.055 34.2561 177.287 22.2737 175.626C22.6146 176.844 22.7981 178.026 22.9292 178.469C23.4536 182.676 23.7683 186.884 24.0829 191.055C24.5346 201.998 25.454 212.894 26.836 223.683C28.6713 235.051 30.7689 245.09 36.4323 254.687C39.3926 259.309 43.1626 262.758 47.3658 264.689C49.6176 265.684 51.9378 266.339 54.2878 266.645V266.756Z" fill="black" fill-opacity="0.2"/>
    </g>
    <defs>
    <clipPath id="clip0_40_12">
    <rect width="1922" height="841" fill="white"/>
    </clipPath>
    </defs>
    </svg>
    